<svg width="96" height="96" viewBox="0 0 96 96" fill="none" xmlns="http://www.w3.org/2000/svg">
<path fill-rule="evenodd" clip-rule="evenodd" d="M30.3929 8.12949C33.7771 4.75841 38.6978 3.4399 43.3142 4.66725L73.8318 12.781C78.4751 14.0156 82.1044 17.6378 83.3479 22.2787L91.4719 52.598C92.7154 57.2389 91.3835 62.1905 87.9796 65.5813L65.6074 87.8668C62.2232 91.2379 57.3025 92.5564 52.6861 91.3291L51.2441 90.9457L51.2261 90.9409L22.1685 83.2153C17.5252 81.9809 13.896 78.3586 12.6524 73.7177L4.52834 43.3982C3.28482 38.7573 4.61674 33.8057 8.02069 30.4149L29.4828 9.03588C29.4955 9.0232 29.5083 9.01057 29.521 8.99798L30.3929 8.12949ZM9.6445 40.9169C9.68272 41.2188 9.7386 41.5203 9.81253 41.8197C9.82507 41.8705 9.83812 41.9213 9.8517 41.9719L17.9757 72.2913C18.1788 73.049 18.4897 73.7606 18.8913 74.4089C19.9396 76.1013 21.6059 77.363 23.5845 77.8891L52.6867 85.6265C52.863 85.6723 53.0404 85.7143 53.2187 85.7523C55.4933 86.1589 57.7234 84.7033 58.2324 82.4054L61.3951 68.1262C61.6701 66.885 61.6418 65.5958 61.3128 64.3679L51.3443 27.165C51.0153 25.937 50.3951 24.8065 49.5364 23.869L39.6578 13.0843C38.0707 11.3515 35.4177 11.2036 33.6512 12.6853C33.4958 12.825 33.344 12.9687 33.1961 13.1161L11.9101 34.3196C10.4984 35.7258 9.69137 37.5875 9.59231 39.5203C9.56857 39.9835 9.5855 40.4508 9.6445 40.9169ZM64.1137 78.923L66.7758 69.318C67.2423 67.2121 67.1943 65.0249 66.6361 62.9415L56.6676 25.7386C56.1094 23.6552 55.0573 21.737 53.6004 20.1465L46.4932 13.1602L60.6806 20.8028C62.7083 21.814 64.2051 23.6462 64.7915 25.8348L73.6236 58.7966C74.2101 60.9853 73.8299 63.3204 72.5795 65.21L64.1137 78.923ZM84.0902 61.6768L76.5667 69.1712L77.1754 68.2513C79.2969 65.0454 79.9419 61.0836 78.947 57.3702L70.1149 24.4085C69.1199 20.6951 66.5804 17.5866 63.1401 15.8709L62.1525 15.3784L72.4157 18.1071C75.1525 18.8347 77.2916 20.9697 78.0246 23.7051L86.1486 54.0244C86.8815 56.7598 86.0965 59.6783 84.0902 61.6768Z" fill="#FFFEF8"/>
</svg>
