<svg width="33" height="32" viewBox="0 0 33 32" fill="none" xmlns="http://www.w3.org/2000/svg">
<path d="M24.8579 0H8.85791C4.43963 0 0.85791 3.58172 0.85791 8V24C0.85791 28.4183 4.43963 32 8.85791 32H24.8579C29.2762 32 32.8579 28.4183 32.8579 24V8C32.8579 3.58172 29.2762 0 24.8579 0Z" fill="#292929"/>
<path d="M12.2681 9C11.8124 9 11.4218 9.16276 11.0963 9.48828C10.7707 9.80078 10.608 10.1914 10.608 10.6602C10.608 11.1159 10.7707 11.5065 11.0963 11.832C11.4218 12.1576 11.8059 12.3203 12.2486 12.3203C12.7043 12.3203 13.095 12.1576 13.4205 11.832C13.746 11.5065 13.9088 11.1159 13.9088 10.6602C13.9088 10.2044 13.746 9.8138 13.4205 9.48828C13.108 9.16276 12.7239 9 12.2681 9ZM20.315 13.375C19.677 13.375 19.1236 13.5247 18.6548 13.8242C18.2772 14.0716 17.9778 14.4036 17.7564 14.8203H17.7173V13.5703H14.983V22.75H17.8345V18.1992C17.8345 17.7044 17.8606 17.3268 17.9127 17.0664C17.9908 16.6758 18.134 16.3828 18.3423 16.1875C18.5897 15.9661 18.9413 15.8555 19.397 15.8555C19.8528 15.8555 20.1978 15.9857 20.4322 16.2461C20.6275 16.4544 20.7577 16.7669 20.8228 17.1836C20.8619 17.431 20.8814 17.7956 20.8814 18.2773V22.75H23.733V17.7109C23.733 16.7865 23.6483 16.0443 23.4791 15.4844C23.2838 14.8073 22.9517 14.293 22.483 13.9414C21.9621 13.5638 21.2395 13.375 20.315 13.375ZM10.8423 13.5703V22.75H13.6939V13.5703H10.8423Z" fill="#BFBFBF"/>
</svg>
